<svg width="431.1875" height="300" viewBox="0 0 1024 1024" version="1.1" xmlns="http://www.w3.org/2000/svg"><path d="M920.541697 482.719116c-46.901193-46.901193-109.259426-72.730465-175.587064-72.730465s-128.685871 25.829272-175.587064 72.730465c-46.901193 46.901193-72.730465 109.259426-72.730465 175.587064 0 66.326615 25.829272 128.685871 72.730465 175.587064s109.259426 72.730465 175.587064 72.730465 128.685871-25.829272 175.587064-72.730465 72.730465-109.259426 72.730465-175.587064C993.272161 591.978543 967.44289 529.621333 920.541697 482.719116zM894.251937 807.603485c-39.879266 39.879266-92.89983 61.841463-149.296281 61.841463s-109.418039-21.962198-149.296281-61.841463c-82.321914-82.322937-82.321914-216.271672 0-298.593586 39.879266-39.879266 92.89983-61.841463 149.296281-61.841463s109.418039 21.962198 149.296281 61.841463c39.879266 39.878243 61.842487 92.900853 61.842487 149.297304C956.093401 714.702632 934.13018 767.724219 894.251937 807.603485zM450.747961 770.171967 263.906575 770.171967 72.098062 581.413929 72.098062 239.022839c0-17.398252 12.758582-31.552623 28.441772-31.552623l785.444812 0c15.683191 0 28.442796 14.154371 28.442796 31.552623l0 175.041642c0 10.266831 8.322549 18.590404 18.58938 18.590404s18.58938-8.322549 18.58938-18.590404L951.606203 239.022839c0-37.899168-29.437449-68.732407-65.621557-68.732407L100.539834 170.290431c-36.184107 0-65.621557 30.833239-65.621557 68.732407l0 350.178451c0 4.981455 1.99954 9.755178 5.550413 13.249769l202.785519 199.560058c3.477194 3.421936 8.160867 5.339612 13.038968 5.339612l194.45376 0c10.266831 0 18.590404-8.322549 18.590404-18.58938S461.014792 770.171967 450.747961 770.171967zM745.491869 560.587602c-10.266831 0-18.58938 8.322549-18.58938 18.58938l0 229.079372c0 10.266831 8.322549 18.58938 18.58938 18.58938s18.58938-8.322549 18.58938-18.58938L764.081249 579.176982C764.081249 568.909128 755.7587 560.587602 745.491869 560.587602zM745.491869 495.699756c-10.266831 0-18.58938 8.322549-18.58938 18.590404l0 12.82305c0 10.266831 8.322549 18.590404 18.58938 18.590404s18.58938-8.323573 18.58938-18.590404l0-12.82305C764.081249 504.022305 755.7587 495.699756 745.491869 495.699756z" xmlns="http://www.w3.org/2000/svg"></path></svg>