<svg width="431.1875" height="300" viewBox="0 0 1024 1024" version="1.1" xmlns="http://www.w3.org/2000/svg"><path d="M954.282523 379.085837q0-30.199908-19.970907-51.145005t-58.93853-20.945097l-737.462268 0q-33.12248 0-51.145005 16.56124t-17.048335 44.812767l0 36.045051 0 74.038484 0 90.599724 0 90.599724 0 71.115912 0 33.12248q0 31.174099 18.509621 47.248243t46.761148 16.074145l740.38484 0q34.09667 0 56.503054-20.458002t22.406383-50.65791l0-39.941814 0-70.141722 0-85.728771 0-83.78039 0-66.244959 0-31.174099zM532.458002 446.304987q0 22.406383-17.048335 40.916004t-41.4031 18.509621l-301.999079 0q-24.354764 0-41.4031-18.022526t-17.048335-39.454718l0-12.664478q0-22.406383 17.048335-39.454718t41.4031-17.048335l301.999079 0q24.354764 0 41.4031 18.022526t17.048335 39.454718l0 9.741906zM745.805739 742.458923q-32.148289 0-59.912721-12.177382t-48.709529-32.635384-33.12248-48.222434-12.177382-59.912721 12.177382-60.399816 33.12248-48.709529 48.709529-32.635384 59.912721-12.177382 59.912721 12.177382 48.709529 32.635384 33.12248 48.709529 12.177382 60.399816-12.177382 59.912721-33.12248 48.222434-48.709529 32.635384-59.912721 12.177382zM278.194261 271.924873l-91.573914 0 138.335062-245.496026q9.741906-15.587049 24.354764-22.893479t31.174099 0.487095 18.996716 25.328955-3.409667 29.225717z" xmlns="http://www.w3.org/2000/svg"></path></svg>