<svg width="431.1875" height="300" viewBox="0 0 1024 1024" version="1.1" xmlns="http://www.w3.org/2000/svg"><path d="M393.856 853.333333l-104.042667 104.042667a19.754667 19.754667 0 1 1-27.968-27.989333L337.898667 853.333333h-39.189334C275.114667 853.333333 256 834.133333 256 810.816v-200.853333C148.394667 573.696 72 476.373333 64.597333 362.666667L64 320C77.589333 176.512 199.402667 64 347.669333 64a290.304 290.304 0 0 1 7.978667 0.106667c111.957333 3.093333 210.24 70.826667 253.141333 170.56h244.458667A85.397333 85.397333 0 0 1 938.666667 320.042667v490.773333c0 23.466667-18.986667 42.517333-42.709334 42.517333h-35.989333l76.074667 76.053334a19.776 19.776 0 1 1-27.989334 27.989333L804.010667 853.333333H393.856zM896 578.24L896 320.042667A42.730667 42.730667 0 0 0 853.248 277.333333H341.418667A42.666667 42.666667 0 0 0 298.666667 320.042667v258.197333h597.333333z m0 38.101333H298.666667v194.474667c0-0.213333 597.290667-0.149333 597.290666-0.149333L896 616.341333zM256 505.962667c-12.117333-40.746667-19.477333-89.984-21.034667-143.296H107.370667c6.976 90.261333 65.344 168.042667 148.629333 201.813333v-58.517333z m26.837333-248.085334A85.141333 85.141333 0 0 1 341.418667 234.666667h76.202666c-13.76-76.266667-41.088-125.845333-64.106666-127.936l-2.432-0.042667c-27.242667 1.386667-56.384 63.509333-68.266667 151.189333zM460.949333 234.666667h100.586667c-28.8-54.613333-78.08-96-136.832-115.562667 16.256 29.397333 28.608 69.12 36.245333 115.562667z m-225.984 85.333333c2.453333-83.904 19.264-157.674667 46.378667-204.224C188.117333 142.08 118.037333 222.293333 107.946667 320h127.04zM768 874.666667v42.666666H426.666667v-42.666666h341.333333z m-359.936-143.722667c-20.906667 0-37.845333-17.088-37.845333-38.186667 0-21.077333 16.938667-38.165333 37.845333-38.165333s37.845333 17.088 37.845333 38.186667c0 21.077333-16.938667 38.186667-37.845333 38.186666z m378.538667 0c-20.906667 0-37.845333-17.088-37.845334-38.186667 0-21.077333 16.938667-38.165333 37.845334-38.165333s37.845333 17.088 37.845333 38.186667c0 21.077333-16.938667 38.186667-37.845333 38.186666z" fill="#3D3D3D" xmlns="http://www.w3.org/2000/svg"></path></svg>